/* XPM */
static char * close_active_xpm[] = {
"24 24 73 1",
" 	c None",
".	c #101112",
"+	c #110C0D",
"@	c #1C0505",
"#	c #050101",
"$	c #1B090A",
"%	c #340000",
"&	c #720402",
"*	c #9E382F",
"=	c #9F372E",
"-	c #710403",
";	c #350000",
">	c #140D0D",
",	c #440201",
"'	c #B2352A",
")	c #DD655A",
"!	c #E87066",
"~	c #E97166",
"{	c #DC665B",
"]	c #B1352A",
"^	c #430101",
"/	c #3E1212",
"(	c #980906",
"_	c #ED5A4E",
":	c #F8675B",
"<	c #FC6B60",
"[	c #EE5C4F",
"}	c #3D1212",
"|	c #3B0202",
"1	c #C52E21",
"2	c #E64C41",
"3	c #E95045",
"4	c #E85043",
"5	c #E85044",
"6	c #E64D41",
"7	c #530303",
"8	c #C42B21",
"9	c #D83C30",
"0	c #D63A2F",
"a	c #D83A30",
"b	c #D73B30",
"c	c #D73A30",
"d	c #C32A20",
"e	c #560303",
"f	c #692C2C",
"g	c #AA1A14",
"h	c #CA2C22",
"i	c #CA2D22",
"j	c #CA2C21",
"k	c #CA2C20",
"l	c #AB1B14",
"m	c #692B2B",
"n	c #766868",
"o	c #7E0905",
"p	c #C12822",
"q	c #C82D25",
"r	c #C92D25",
"s	c #C82C25",
"t	c #C22923",
"u	c #766869",
"v	c #616162",
"w	c #876765",
"x	c #9B100B",
"y	c #B01D1B",
"z	c #C02A24",
"A	c #B11F1B",
"B	c #99100B",
"C	c #808181",
"D	c #A19393",
"E	c #783B3B",
"F	c #790606",
"G	c #A5A6A6",
"H	c #D7D7D7",
"........................",
"........................",
"........................",
"........................",
"........................",
"........................",
"........................",
".........+@##@+.........",
"........$%&*=-;$........",
".......>,')!~{]^>.......",
"......./(_:<<:[(}.......",
".......|12345461|.......",
".......78990abcde.......",
".......fghhijkhlm.......",
".......nopqrsstou.......",
".......vwxyzzABwv.......",
"........CDEFFEDC........",
".........vGHHGv.........",
"........................",
"........................",
"........................",
"........................",
"........................",
"........................"};
