/* XPM */
static char * close_prelight_xpm[] = {
"24 24 66 1",
" 	c None",
".	c #101112",
"+	c #170C0D",
"@	c #350606",
"#	c #300101",
"$	c #290909",
"%	c #560301",
"&	c #83140B",
"*	c #A54137",
"=	c #570402",
"-	c #1B0C0D",
";	c #610202",
">	c #B73C32",
",	c #D65D51",
"'	c #DE6358",
")	c #DE6258",
"!	c #B73D32",
"~	c #620302",
"{	c #1A0C0D",
"]	c #541010",
"^	c #9F1209",
"/	c #DF463A",
"(	c #E44A3E",
"_	c #E34A3D",
":	c #E3493D",
"<	c #9F130A",
"[	c #501010",
"}	c #560302",
"|	c #B8190A",
"1	c #CE2918",
"2	c #CD2818",
"3	c #B81909",
"4	c #610303",
"5	c #AF0B09",
"6	c #BB0D09",
"7	c #BB0E0A",
"8	c #BA0D09",
"9	c #BB0D0A",
"0	c #AE0B09",
"a	c #640303",
"b	c #6D2C28",
"c	c #9A0906",
"d	c #AD0B09",
"e	c #AE0C0A",
"f	c #9B0A06",
"g	c #766868",
"h	c #7E0604",
"i	c #AA0B09",
"j	c #AC0B09",
"k	c #AB0B09",
"l	c #AC0C0A",
"m	c #766A69",
"n	c #616162",
"o	c #876764",
"p	c #910905",
"q	c #9E0907",
"r	c #A50B07",
"s	c #A60B08",
"t	c #9F0907",
"u	c #808181",
"v	c #A19293",
"w	c #773535",
"x	c #780606",
"y	c #A19393",
"z	c #A5A6A6",
"A	c #D7D7D7",
"........................",
"........................",
"........................",
"........................",
"........................",
"........................",
"........................",
".........+@##@+.........",
"........$%&**&=$........",
".......-;>,'),!~{.......",
".......]^/(_::/<[.......",
".......}|1111123}.......",
".......456786690a.......",
".......bcdddeedfb.......",
".......ghijkklihm.......",
".......nopqrstpon.......",
"........uvwxxwyu........",
".........nzAAzn.........",
"........................",
"........................",
"........................",
"........................",
"........................",
"........................"};
