/* XPM */
static char * close_pressed_xpm[] = {
"24 24 74 1",
" 	c None",
".	c #131414",
"+	c #131314",
"@	c #121314",
"#	c #121213",
"$	c #111213",
"%	c #180D0D",
"&	c #360606",
"*	c #300101",
"=	c #290C0E",
"-	c #510202",
";	c #68130D",
">	c #702B24",
",	c #6F2A23",
"'	c #69140D",
")	c #290B0D",
"!	c #1C0D0D",
"~	c #5A0302",
"{	c #862C23",
"]	c #923E35",
"^	c #9D433C",
"/	c #1B0D0D",
"(	c #521010",
"_	c #82110B",
":	c #A83429",
"<	c #BD3C31",
"[	c #C74035",
"}	c #C84035",
"|	c #A8342A",
"1	c #511010",
"2	c #560303",
"3	c #911305",
"4	c #B42215",
"5	c #C52518",
"6	c #CA2618",
"7	c #C42418",
"8	c #B32115",
"9	c #111112",
"0	c #620403",
"a	c #960906",
"b	c #B20D09",
"c	c #BA0D09",
"d	c #BB0E0A",
"e	c #BA0D0A",
"f	c #B30D09",
"g	c #950907",
"h	c #640303",
"i	c #101112",
"j	c #712C28",
"k	c #900805",
"l	c #AA0B09",
"m	c #AE0C0A",
"n	c #AD0B09",
"o	c #6D2C28",
"p	c #766869",
"q	c #7E0403",
"r	c #A80B08",
"s	c #AB0B09",
"t	c #7E0504",
"u	c #766A69",
"v	c #616263",
"w	c #876866",
"x	c #8F0805",
"y	c #9E0907",
"z	c #A50B08",
"A	c #876865",
"B	c #616162",
"C	c #808181",
"D	c #A19293",
"E	c #773535",
"F	c #770606",
"G	c #780606",
"H	c #A5A6A6",
"I	c #D7D7D7",
"..+@@@@@@@@@@@@@@@@@@@@@",
"+@@@@@@@@@@@@@@@@@@@@@@@",
"@@@@@@@@@@@@@@########@@",
"@@@@@@@@@@###$$$$$$$$$$#",
"@@@@@@@@##$$$$$$$$$$$$$$",
"@@@@@@##$$$$$$$$$$$$$$$$",
"@@@@@#$$$$$$$$$$$$$$$$$$",
"@@@##$$$$%&**&%$$$$$$$$$",
"@@##$$$$=-;>,'-)$$$$$$$$",
"@@#$$$$!~{]^^]{~/$$$$$$$",
"@#$$$$$(_:<[}<|_1$$$$$$$",
"#$$$$$$2345667832999999$",
"#$$$$$$0abcdcefghiiiiii9",
"$$$$$$$jklmnmmlkoiiiiiii",
"$$$$$$$pqrssssrtuiiiiiii",
"$$$$$$$vwxyzzyxABiiiiiii",
"$$$$$$$9CDEFGEDCiiiiiiii",
"$$$$$$$9iBHIIHBiiiiiiiii",
"$$$$$$9iiiiiiiiiiiiiiiii",
"$$$$$$9iiiiiiiiiiiiiiiii",
"$$$$$$9iiiiiiiiiiiiiiiii",
"$$$$$$9iiiiiiiiiiiiiiiii",
"$$$$$$9iiiiiiiiiiiiiiiii",
"$$$$$$9iiiiiiiiiiiiiiiii"};
