/* XPM */
static char * close_inactive_xpm[] = {
"24 24 44 1",
" 	c None",
".	c #101112",
"+	c #0F1011",
"@	c #0E0E0F",
"#	c #0D0D0E",
"$	c #0F0F0F",
"%	c #121213",
"&	c #333333",
"*	c #646464",
"=	c #909090",
"-	c #151516",
";	c #3B3B3B",
">	c #9B9B9B",
",	c #C1C1C1",
"'	c #CDCDCD",
")	c #777777",
"!	c #C9C9C9",
"~	c #D4D4D4",
"{	c #D8D8D8",
"]	c #CACACA",
"^	c #A0A0A0",
"/	c #C4C4C4",
"(	c #C5C5C5",
"_	c #434343",
":	c #9E9E9E",
"<	c #B0B0B0",
"[	c #B1B1B1",
"}	c #9C9C9C",
"|	c #626262",
"1	c #7C7C7C",
"2	c #A2A2A2",
"3	c #A1A1A1",
"4	c #707171",
"5	c #616161",
"6	c #9A9A9A",
"7	c #999999",
"8	c #616162",
"9	c #898989",
"0	c #696969",
"a	c #878787",
"b	c #808181",
"c	c #757576",
"d	c #A6A6A6",
"e	c #D7D7D7",
"........................",
"........................",
"........................",
"........................",
"........................",
"........................",
"........................",
"........+@#$$#@+........",
".......+%&*==*&%+.......",
".......-;>,'',>;-.......",
".......&)!~{{~])&.......",
".......&^,/(//,^&.......",
"......._:<[<[[<}_.......",
".......|12223221|.......",
".......4563323754.......",
".......890a>6a098.......",
"........b}c||c}b........",
".........8deed8.........",
"........................",
"........................",
"........................",
"........................",
"........................",
"........................"};
