/* XPM */
static char * hide_active_xpm[] = {
"24 24 88 1",
" 	c None",
".	c #121314",
"+	c #121213",
"@	c #111213",
"#	c #120D0D",
"$	c #1D0506",
"%	c #060101",
"&	c #111112",
"*	c #1C0909",
"=	c #340000",
"-	c #713B05",
";	c #9E6D2D",
">	c #9E6F2D",
",	c #733C05",
"'	c #330000",
")	c #1C090A",
"!	c #101112",
"~	c #140D0D",
"{	c #430501",
"]	c #B2772B",
"^	c #DCA55A",
"/	c #E8AE65",
"(	c #E8AF65",
"_	c #DDA45A",
":	c #440602",
"<	c #3E1912",
"[	c #985709",
"}	c #EEAA50",
"|	c #F8B35B",
"1	c #FCB860",
"2	c #FCB75F",
"3	c #F9B45B",
"4	c #EEA84F",
"5	c #985809",
"6	c #3E1B13",
"7	c #3B0602",
"8	c #C58023",
"9	c #E69E41",
"0	c #EAA246",
"a	c #E9A346",
"b	c #E9A144",
"c	c #E9A145",
"d	c #E79F42",
"e	c #C58021",
"f	c #3B0702",
"g	c #531D03",
"h	c #C47D23",
"i	c #D78D2E",
"j	c #D78E30",
"k	c #D68D2E",
"l	c #D68D2F",
"m	c #D78D30",
"n	c #C17A1F",
"o	c #561503",
"p	c #694728",
"q	c #AB6713",
"r	c #CA8022",
"s	c #CA8124",
"t	c #C98022",
"u	c #CA8122",
"v	c #CA8224",
"w	c #C98123",
"x	c #AA6612",
"y	c #69472B",
"z	c #766E68",
"A	c #7E5106",
"B	c #C17921",
"C	c #C97F26",
"D	c #C87F24",
"E	c #C87F25",
"F	c #766D69",
"G	c #616162",
"H	c #877767",
"I	c #99580A",
"J	c #B26D1C",
"K	c #C07824",
"L	c #C07924",
"M	c #B16B1B",
"N	c #9A590A",
"O	c #877764",
"P	c #808181",
"Q	c #A19A93",
"R	c #785A3B",
"S	c #794106",
"T	c #7A4406",
"U	c #78593B",
"V	c #A5A6A6",
"W	c #D7D7D7",
".+++@@@@@@@@@@+++.......",
"+@@@@@@@@@@@@@@@@++.....",
"@@@@@@@@@@@@@@@@@@@++...",
"@@@@@@@@@@@@@@@@@@@@@+..",
"@@@@@@@@@@@@@@@@@@@@@@++",
"@@@@@@@@@@@@@@@@@@@@@@@+",
"@@@@@@@@@@@@@@@@@@@@@@@@",
"@@@@@@@@@#$%%$#@@@@@@@@@",
"@@@@&&&&*=-;>,')@@@@@@@@",
"@@&&!!!~{]^/(_]:~@@@@@@@",
"&&!!!!!<[}|123456&@@@@@@",
"&!!!!!!7890abcdef&&@@@@@",
"!!!!!!!ghijkljmno!&@@@@@",
"!!!!!!!pqrstuvwxy!!&@@@@",
"!!!!!!!zABCDEDBAF!!&@@@@",
"!!!!!!!GHIJKLMNOG!!!&@@@",
"!!!!!!!!PQRSTUQP!!!!&@@@",
"!!!!!!!!!GVWWVG!!!!!&@@@",
"!!!!!!!!!!!!!!!!!!!!&@@@",
"!!!!!!!!!!!!!!!!!!!!&@@@",
"!!!!!!!!!!!!!!!!!!!!&@@@",
"!!!!!!!!!!!!!!!!!!!!&@@@",
"!!!!!!!!!!!!!!!!!!!!&@@@",
"!!!!!!!!!!!!!!!!!!!!&@@@"};
