/* XPM */
static char * hide_prelight_xpm[] = {
"24 24 69 1",
" 	c None",
".	c #111213",
"+	c #111112",
"@	c #101112",
"#	c #170F0D",
"$	c #351506",
"%	c #300601",
"&	c #291609",
"*	c #572203",
"=	c #83500D",
"-	c #A67738",
";	c #A57738",
">	c #572303",
",	c #1B110D",
"'	c #612A02",
")	c #B77C32",
"!	c #D69D51",
"~	c #DEA357",
"{	c #DEA356",
"]	c #1A110D",
"^	c #543110",
"/	c #9F5F0C",
"(	c #DF983A",
"_	c #E49C3E",
":	c #E49C3D",
"<	c #E39B3D",
"[	c #9F5F0B",
"}	c #503010",
"|	c #562103",
"1	c #B86F0D",
"2	c #CD821A",
"3	c #CE821A",
"4	c #CD8219",
"5	c #CE831A",
"6	c #622E03",
"7	c #AF640B",
"8	c #BB6D0D",
"9	c #BA6C0D",
"0	c #BB6D0E",
"a	c #AF640C",
"b	c #652F04",
"c	c #6D4F28",
"d	c #9A530A",
"e	c #AD5F0B",
"f	c #AE5F0C",
"g	c #9A5309",
"h	c #767068",
"i	c #7E4605",
"j	c #AB5E0C",
"k	c #AB5D0B",
"l	c #AC5D0B",
"m	c #AA5E0B",
"n	c #7E4705",
"o	c #767169",
"p	c #616162",
"q	c #877664",
"r	c #914F08",
"s	c #9F570A",
"t	c #A75B0A",
"u	c #A65B0A",
"v	c #9F5609",
"w	c #877667",
"x	c #808181",
"y	c #A09A93",
"z	c #775738",
"A	c #783B06",
"B	c #775735",
"C	c #A5A6A6",
"D	c #D7D7D7",
".....++++++++++.........",
"...++@@@@@@@@@@++.......",
".++@@@@@@@@@@@@@@++.....",
"++@@@@@@@@@@@@@@@@++....",
"+@@@@@@@@@@@@@@@@@@+....",
"@@@@@@@@@@@@@@@@@@@@+...",
"@@@@@@@@@@@@@@@@@@@@+...",
"@@@@@@@@@#$%%$#@@@@@@+..",
"@@@@@@@@&*=-;=>&@@@@@+..",
"@@@@@@@,')!~{!)']@@@@+..",
"@@@@@@@^/(_:<_([}@@@@+..",
"@@@@@@@|12324521|@@@@+..",
"@@@@@@@67889980ab@@@@+..",
"@@@@@@@cdeeeeffgc@@@@+..",
"@@@@@@@hijklllmno@@@@+..",
"@@@@@@@pqrstuvrwp@@@@+..",
"@@@@@@@@xyzAAByx@@@@@+..",
"@@@@@@@@@pCDDCp@@@@@+...",
"@@@@@@@@@@@@@@@@@@@@+...",
"+@@@@@@@@@@@@@@@@@@+....",
"++@@@@@@@@@@@@@@@@++....",
".++@@@@@@@@@@@@@@++.....",
"...++@@@@@@@@@@++.......",
".....++++++++++........."};
