/* XPM */
static char * hide_inactive_xpm[] = {
"24 24 45 1",
" 	c None",
".	c #101112",
"+	c #0F1011",
"@	c #0E0F10",
"#	c #0D0E0E",
"$	c #0F0F0F",
"%	c #121313",
"&	c #333333",
"*	c #646464",
"=	c #909090",
"-	c #151617",
";	c #3B3B3B",
">	c #9B9B9B",
",	c #C1C1C1",
"'	c #CDCDCD",
")	c #333334",
"!	c #777777",
"~	c #C9C9C9",
"{	c #D4D4D4",
"]	c #D8D8D8",
"^	c #CACACA",
"/	c #A0A0A0",
"(	c #C4C4C4",
"_	c #C5C5C5",
":	c #434343",
"<	c #9E9E9E",
"[	c #B0B0B0",
"}	c #B1B1B1",
"|	c #9C9C9C",
"1	c #626262",
"2	c #7C7C7C",
"3	c #A2A2A2",
"4	c #A1A1A1",
"5	c #707171",
"6	c #616161",
"7	c #9A9A9A",
"8	c #999999",
"9	c #616162",
"0	c #898989",
"a	c #696969",
"b	c #878787",
"c	c #808181",
"d	c #757576",
"e	c #A5A6A6",
"f	c #D7D7D7",
"........................",
"........................",
"........................",
"........................",
"........................",
"........................",
"........................",
"........+@#$$#@+........",
".......+%&*==*&%+.......",
".......-;>,'',>;-.......",
".......)!~{]]{^!).......",
".......&/,(_((,/&.......",
".......:<[}[}}[|:.......",
".......1233343321.......",
".......5674434865.......",
".......90ab>7ba09.......",
"........c|d11d|c........",
".........9effe9.........",
"........................",
"........................",
"........................",
"........................",
"........................",
"........................"};
