/* XPM */
static char * hide_pressed_xpm[] = {
"24 24 72 1",
" 	c None",
".	c #101112",
"+	c #170F0D",
"@	c #351506",
"#	c #300601",
"$	c #291609",
"%	c #512202",
"&	c #68400C",
"*	c #705024",
"=	c #704F24",
"-	c #68400D",
";	c #1B110D",
">	c #5A2802",
",	c #865B24",
"'	c #926A35",
")	c #9D733B",
"!	c #9E733C",
"~	c #926B35",
"{	c #875C24",
"]	c #1A110D",
"^	c #543110",
"/	c #824E0B",
"(	c #A8712A",
"_	c #BD8131",
":	c #C88835",
"<	c #C78835",
"[	c #BE8132",
"}	c #A87129",
"|	c #503010",
"1	c #562103",
"2	c #915508",
"3	c #B37115",
"4	c #C47C18",
"5	c #CA8018",
"6	c #B47215",
"7	c #622E04",
"8	c #965509",
"9	c #B3670D",
"0	c #B96C0D",
"a	c #BB6D0D",
"b	c #BA6C0D",
"c	c #BA6D0D",
"d	c #B3680D",
"e	c #945408",
"f	c #642F03",
"g	c #6D4F28",
"h	c #904E08",
"i	c #AB5D0C",
"j	c #AD5F0B",
"k	c #AE5F0C",
"l	c #767068",
"m	c #7E4505",
"n	c #A85D09",
"o	c #AB5D0B",
"p	c #AC5D0C",
"q	c #AC5D0B",
"r	c #A85D0A",
"s	c #767069",
"t	c #616162",
"u	c #877664",
"v	c #8F4D07",
"w	c #9F570A",
"x	c #A75B0A",
"y	c #A65A09",
"z	c #9F5609",
"A	c #808181",
"B	c #A09A93",
"C	c #775735",
"D	c #783B06",
"E	c #773B06",
"F	c #A5A6A6",
"G	c #D7D7D7",
"........................",
"........................",
"........................",
"........................",
"........................",
"........................",
"........................",
".........+@##@+.........",
"........$%&*=-%$........",
".......;>,')!~{>].......",
".......^/(_:<[}/|.......",
".......1234554621.......",
".......7890abcdef.......",
".......ghijkjjihg.......",
".......lmnoppqrms.......",
".......tuvwxyzhut.......",
"........ABCDECBA........",
".........tFGGFt.........",
"........................",
"........................",
"........................",
"........................",
"........................",
"........................"};
