/* XPM */
static char * left_inactive_xpm[] = {
"1 21 7 1",
" 	c None",
".	c #131415",
"+	c #131314",
"@	c #121314",
"#	c #121313",
"$	c #111213",
"%	c #101112",
".",
".",
".",
"+",
"@",
"@",
"@",
"@",
"#",
"$",
"$",
"$",
"$",
"$",
"$",
"$",
"%",
"%",
"%",
"%",
"%"};
