/* XPM */
static char * maximize_toggled_inactive_xpm[] = {
"24 24 58 1",
" 	c None",
".	c #121314",
"+	c #121213",
"@	c #111213",
"#	c #111112",
"$	c #101112",
"%	c #0F1010",
"&	c #0E0E0E",
"*	c #0F0F0F",
"=	c #0E0F10",
"-	c #0F1011",
";	c #151515",
">	c #333333",
",	c #646464",
"'	c #909090",
")	c #141415",
"!	c #161717",
"~	c #3B3B3B",
"{	c #9B9B9B",
"]	c #C1C1C1",
"^	c #CDCDCD",
"/	c #151617",
"(	c #333434",
"_	c #777777",
":	c #C9C9C9",
"<	c #D4D4D4",
"[	c #D8D8D8",
"}	c #CACACA",
"|	c #333334",
"1	c #A0A0A0",
"2	c #C4C4C4",
"3	c #C5C5C5",
"4	c #434343",
"5	c #9E9E9E",
"6	c #B0B0B0",
"7	c #B1B1B1",
"8	c #9C9C9C",
"9	c #626262",
"0	c #7C7C7C",
"a	c #A2A2A2",
"b	c #A1A1A1",
"c	c #717171",
"d	c #616161",
"e	c #9A9A9A",
"f	c #999999",
"g	c #707171",
"h	c #616263",
"i	c #8A8A8A",
"j	c #696969",
"k	c #878787",
"l	c #89898A",
"m	c #616162",
"n	c #818182",
"o	c #757576",
"p	c #808181",
"q	c #A6A6A6",
"r	c #D7D7D7",
"s	c #A5A6A6",
".......++@@@@@@@@@@@@@@@",
"......++@@@@@@@@@@@@@@@@",
"......+@@@@@@@@@@@@@@@@@",
".....+@@@@@@@@@@@@@@@@@@",
"....+@@@@@@@@@@@@#######",
"....+@@@@@@@@@@##$$$$$$$",
"...+@@@@@@@@@##$$$$$$$$$",
"...+@@@@$%&**&=-$$$$$$$$",
"..+@@@@$;>,'',>)-$$$$$$$",
"..+@@@@!~{]^^]{~/$$$$$$$",
"..+@@@@(_:<[[<}_|$$$$$$$",
"..@@@@@>1]2322]1>$$$$$$$",
".+@@@@@4567677684$$$$$$$",
".+@@@@@90aaabaa09$$$$$$$",
".+@@@@@cdebbabfdg$$$$$$$",
".+@@@@@hijk{ekjlm$$$$$$$",
".+@@@@@@n8o99o8p$$$$$$$$",
".+@@@@@@@hqrrsm$$$$$$$$$",
".+@@@@@@@@#$$$$$$$$$$$$$",
".+@@@@@@@@#$$$$$$$$$$$$$",
"..@@@@@@@@#$$$$$$$$$$$$$",
"..+@@@@@@@@#$$$$$$$$$$$$",
"..+@@@@@@@@#$$$$$$$$$$$$",
"..+@@@@@@@@@#$$$$$$$$$$$"};
