/* XPM */
static char * maximize_prelight_xpm[] = {
"24 24 79 1",
" 	c None",
".	c #141516",
"+	c #141515",
"@	c #141415",
"#	c #131415",
"$	c #131414",
"%	c #131314",
"&	c #121314",
"*	c #121213",
"=	c #0D190E",
"-	c #103807",
";	c #033101",
">	c #111213",
",	c #122E11",
"'	c #1D5603",
")	c #3F820D",
"!	c #63A538",
"~	c #62A437",
"{	c #122C0F",
"]	c #101B0E",
"^	c #1E6102",
"/	c #6AB632",
"(	c #84D551",
"_	c #8CDD58",
":	c #8DDD58",
"<	c #6AB633",
"[	c #1F6102",
"}	c #0D1A0D",
"|	c #2C5211",
"1	c #4B9E0B",
"2	c #7EDE3A",
"3	c #83E33E",
"4	c #4C9F0C",
"5	c #2B5110",
"6	c #215603",
"7	c #59B70E",
"8	c #67CC18",
"9	c #68CD19",
"0	c #59B80E",
"a	c #216204",
"b	c #51AE0C",
"c	c #55BA0D",
"d	c #56BA0E",
"e	c #56BA0D",
"f	c #50AD0B",
"g	c #236604",
"h	c #476E28",
"i	c #46990A",
"j	c #4AAD0C",
"k	c #49AD0C",
"l	c #49AC0C",
"m	c #49AC0B",
"n	c #6F7569",
"o	c #3E7E06",
"p	c #50AA0C",
"q	c #4CAB0C",
"r	c #4BAA0B",
"s	c #4BAB0C",
"t	c #4FA90B",
"u	c #3F7E07",
"v	c #6E7669",
"w	c #616263",
"x	c #738967",
"y	c #468F08",
"z	c #4B9E0A",
"A	c #4BA50A",
"B	c #4C9F0A",
"C	c #738866",
"D	c #111112",
"E	c #818182",
"F	c #97A194",
"G	c #557838",
"H	c #3B7006",
"I	c #3B7606",
"J	c #557835",
"K	c #97A193",
"L	c #101112",
"M	c #A6A6A6",
"N	c #D7D7D7",
"..+@#########$$$%%&&&&&&",
".+@########$$%&&&&&&&&&&",
"+@#######$$%&&&&&&&&&&&&",
"@#######$%&&&&&&&&&&&&&&",
"######$$%&&&&&&&&&&&&&&&",
"#####$%&&&&&&&&&&&&&&&&&",
"####$%&&&&&&&&&&&&&&****",
"###$%&&&&=-;;-=&***>>>>>",
"##$%&&&&,')!~)'{>>>>>>>>",
"#$%&&&&]^/(_:(<[}>>>>>>>",
"#$&&&&&|123333245>>>>>>>",
"$%&&&&&6789999806>>>>>>>",
"%&&&&&&abccdddefg>>>>>>>",
"&&&&&&&hijklkmmih>>>>>>>",
"&&&&&&&nopqrsrtuv>>>>>>>",
"&&&&&&*wxyzAAByCw>>DDDDD",
"&&&&&&*>EFGHIJKE>DDLLLLL",
"&&&&&*>>>wMNNMwDDLLLLLLL",
"&&&&&*>>>>>>>>DDLLLLLLLL",
"&&&&*>>>>>>>>>DLLLLLLLLL",
"&&&&*>>>>>>>>DLLLLLLLLLL",
"&&&&*>>>>>>>>DLLLLLLLLLL",
"&&&&>>>>>>>>DLLLLLLLLLLL",
"&&&*>>>>>>>>DLLLLLLLLLLL"};
