/* XPM */
static char * maximize_inactive_xpm[] = {
"24 24 58 1",
" 	c None",
".	c #131414",
"+	c #131314",
"@	c #121314",
"#	c #121213",
"$	c #111213",
"%	c #101112",
"&	c #0F1010",
"*	c #0E0E0E",
"=	c #0F0F0F",
"-	c #151516",
";	c #333333",
">	c #646464",
",	c #909090",
"'	c #141515",
")	c #101011",
"!	c #111112",
"~	c #161717",
"{	c #3B3B3B",
"]	c #9B9B9B",
"^	c #C1C1C1",
"/	c #CDCDCD",
"(	c #151617",
"_	c #333434",
":	c #777777",
"<	c #C9C9C9",
"[	c #D4D4D4",
"}	c #D8D8D8",
"|	c #CACACA",
"1	c #333334",
"2	c #A0A0A0",
"3	c #C4C4C4",
"4	c #C5C5C5",
"5	c #434343",
"6	c #9E9E9E",
"7	c #B0B0B0",
"8	c #B1B1B1",
"9	c #9C9C9C",
"0	c #626262",
"a	c #7C7C7C",
"b	c #A2A2A2",
"c	c #A1A1A1",
"d	c #717171",
"e	c #616161",
"f	c #9A9A9A",
"g	c #999999",
"h	c #707171",
"i	c #616263",
"j	c #8A8A8A",
"k	c #696969",
"l	c #878787",
"m	c #89898A",
"n	c #616162",
"o	c #818182",
"p	c #757576",
"q	c #808181",
"r	c #A5A6A6",
"s	c #D7D7D7",
".+@@@@@@@@@@@###$$$$$$$$",
"+@@@@@@@@@@##$$$$$$$$$$$",
"@@@@@@@@@##$$$$$$$$$$$$$",
"@@@@@@@@#$$$$$$$$$$$$$$$",
"@@@@@@##$$$$$$$$$$$$$$$$",
"@@@@@##$$$$$$$$$$$$$$$$$",
"@@@@@#$$$$$$$$$$$$$$$$$$",
"@@@@#$$$%&*==*&%$$$$$$$$",
"@@@#$$$%-;>,,>;')!!!!!!!",
"@@@#$$$~{]^//^]{(%%%%%%%",
"@@#$$$$_:<[}}[|:1%%%%%%%",
"@@#$$$$;2^3433^2;%%%%%%%",
"@#$$$$$5678788795%%%%%%%",
"@#$$$$$0abbbcbba0%%%%%%%",
"@#$$$$$defccbcgeh%%%%%%%",
"@$$$$$$ijkl]flkmn%%%%%%%",
"#$$$$$$$o9p00p9q%%%%%%%%",
"#$$$$$$$$nrssrn%%%%%%%%%",
"#$$$$$$$$!%%%%%%%%%%%%%%",
"#$$$$$$$$!%%%%%%%%%%%%%%",
"#$$$$$$$$!%%%%%%%%%%%%%%",
"#$$$$$$$$!%%%%%%%%%%%%%%",
"#$$$$$$$$!%%%%%%%%%%%%%%",
"#$$$$$$$$!%%%%%%%%%%%%%%"};
