/* XPM */
static char * maximize_active_xpm[] = {
"24 24 91 1",
" 	c None",
".	c #131415",
"+	c #131414",
"@	c #131314",
"#	c #121314",
"$	c #121213",
"%	c #111213",
"&	c #0C120D",
"*	c #051D06",
"=	c #010601",
"-	c #051E06",
";	c #0E220F",
">	c #023500",
",	c #2B7205",
"'	c #5A9D2D",
")	c #5A9D2E",
"!	c #297104",
"~	c #023600",
"{	c #0D200D",
"]	c #111112",
"^	c #0C160D",
"/	c #024301",
"(	c #62B12A",
"_	c #8CDB5A",
":	c #99E866",
"<	c #62B02B",
"[	c #024401",
"}	c #0D150D",
"|	c #101112",
"1	c #133F13",
"2	c #43980A",
"3	c #8FED4F",
"4	c #9CF85B",
"5	c #9FFB60",
"6	c #9EFA5F",
"7	c #9BF85B",
"8	c #90ED4F",
"9	c #43970A",
"0	c #123E13",
"a	c #033B03",
"b	c #69C320",
"c	c #86E540",
"d	c #88E744",
"e	c #8AE845",
"f	c #88E743",
"g	c #69C420",
"h	c #023B02",
"i	c #145303",
"j	c #6AC220",
"k	c #78D530",
"l	c #7AD630",
"m	c #79D530",
"n	c #79D630",
"o	c #69C220",
"p	c #155604",
"q	c #426A2C",
"r	c #5AAA14",
"s	c #6DC923",
"t	c #6DC922",
"u	c #6DC823",
"v	c #6CC922",
"w	c #59A912",
"x	c #426A2B",
"y	c #6E7669",
"z	c #487E06",
"A	c #6BC021",
"B	c #6FC725",
"C	c #6FC826",
"D	c #6FC724",
"E	c #6ABF21",
"F	c #497E06",
"G	c #616263",
"H	c #768966",
"I	c #4F970A",
"J	c #61B01B",
"K	c #6BBF24",
"L	c #6ABE24",
"M	c #61B01C",
"N	c #4F980A",
"O	c #758867",
"P	c #616162",
"Q	c #818182",
"R	c #99A194",
"S	c #57783B",
"T	c #3A7A06",
"U	c #56783B",
"V	c #99A193",
"W	c #808181",
"X	c #A6A6A6",
"Y	c #D7D7D7",
"Z	c #A5A6A6",
".+@###########$$$%%%%%%%",
"+@##########$$%%%%%%%%%%",
"@#########$$%%%%%%%%%%%%",
"#########$%%%%%%%%%%%%%%",
"#######$$%%%%%%%%%%%%%%%",
"######$$%%%%%%%%%%%%%%%%",
"######$%%%%%%%%%%%%%%%%%",
"#####$%%%&*==-&%%%%%%%%%",
"####$%%%;>,')!~{%]]]]]]]",
"####$%%^/(_::_<[}|||||||",
"###$%%%1234567890|||||||",
"###$%%%abcdedfcgh|||||||",
"##$%%%%ijklmnnnop|||||||",
"##$%%%%qrstuvtuwx|||||||",
"##$%%%%yzABBCDEFy|||||||",
"##%%%%%GHIJKLMNOP|||||||",
"#$%%%%%%QRSTTUVW||||||||",
"#$%%%%%%%GXYYZP|||||||||",
"#$%%%%%%%%]|||||||||||||",
"#$%%%%%%%%]|||||||||||||",
"#$%%%%%%%%]|||||||||||||",
"#$%%%%%%%%]|||||||||||||",
"#$%%%%%%%%]|||||||||||||",
"#$%%%%%%%%]|||||||||||||"};
