/* XPM */
static char * maximize_toggled_active_xpm[] = {
"24 24 82 1",
" 	c None",
".	c #121314",
"+	c #121213",
"@	c #111213",
"#	c #0C120D",
"$	c #051D06",
"%	c #010601",
"&	c #051E06",
"*	c #0C200D",
"=	c #023500",
"-	c #2B7205",
";	c #5A9D2D",
">	c #5A9D2E",
",	c #297104",
"'	c #023600",
")	c #111112",
"!	c #0C150D",
"~	c #024301",
"{	c #62B12A",
"]	c #8CDB5A",
"^	c #99E866",
"/	c #62B02B",
"(	c #024401",
"_	c #101112",
":	c #123F13",
"<	c #43980A",
"[	c #8FED4F",
"}	c #9CF85B",
"|	c #9FFB60",
"1	c #9EFA5F",
"2	c #9BF85B",
"3	c #90ED4F",
"4	c #43970A",
"5	c #123E13",
"6	c #023B03",
"7	c #69C320",
"8	c #86E540",
"9	c #88E744",
"0	c #8AE845",
"a	c #88E743",
"b	c #69C420",
"c	c #023B02",
"d	c #145303",
"e	c #6AC220",
"f	c #78D530",
"g	c #7AD630",
"h	c #79D530",
"i	c #79D630",
"j	c #69C220",
"k	c #155604",
"l	c #426A2C",
"m	c #5AAA14",
"n	c #6DC923",
"o	c #6DC922",
"p	c #6DC823",
"q	c #6CC922",
"r	c #59A912",
"s	c #426A2B",
"t	c #6E7668",
"u	c #487E06",
"v	c #6BC021",
"w	c #6FC725",
"x	c #6FC826",
"y	c #6FC724",
"z	c #6ABF21",
"A	c #497E06",
"B	c #6E7669",
"C	c #616162",
"D	c #758865",
"E	c #4F970A",
"F	c #61B01B",
"G	c #6BBF24",
"H	c #6ABE24",
"I	c #61B01C",
"J	c #4F980A",
"K	c #758867",
"L	c #808181",
"M	c #99A193",
"N	c #56783B",
"O	c #3A7A06",
"P	c #A5A6A6",
"Q	c #D7D7D7",
".....+++@@@@@@@@@@+++...",
"...++@@@@@@@@@@@@@@@@++.",
".++@@@@@@@@@@@@@@@@@@@@+",
"+@@@@@@@@@@@@@@@@@@@@@@@",
"@@@@@@@@@@@@@@@@@@@@@@@@",
"@@@@@@@@@@@@@@@@@@@@@@@@",
"@@@@@@@@@@@@@@@@@@@@@@@@",
"@@@@@@@@@#$%%&#@@@@@@@@@",
"@@@@@@@@*=-;>,'*))@@@@@@",
"@@@@@@)!~{]^^]/(!_))@@@@",
"@@@@))_:<[}|12345___))@@",
"@@@))__678909a8bc____))@",
"@@@)___defghiiijk_____)@",
"@@)____lmnopqoprs______)",
"@@)____tuvwwxyzAB______)",
"@)_____CDEFGHIJKC_______",
"@)______LMNOONML________",
"@)_______CPQQPC_________",
"@)______________________",
"@)______________________",
"@)______________________",
"@)______________________",
"@)______________________",
"@)______________________"};
