/* XPM */
static char * maximize_toggled_pressed_xpm[] = {
"24 24 81 1",
" 	c None",
".	c #111213",
"+	c #121213",
"@	c #121314",
"#	c #111112",
"$	c #101112",
"%	c #0B180D",
"&	c #103706",
"*	c #033001",
"=	c #103606",
"-	c #0D180D",
";	c #122A0B",
">	c #1C5103",
",	c #34680D",
"'	c #427024",
")	c #426F24",
"!	c #1B5103",
"~	c #122B0D",
"{	c #0E1B0D",
"]	c #1E5902",
"^	c #4D8624",
"/	c #599134",
"(	c #619C3B",
"_	c #619D3B",
":	c #599234",
"<	c #0D1A0D",
"[	c #2B5210",
"}	c #3F820B",
"|	c #5CA728",
"1	c #6ABC31",
"2	c #71C735",
"3	c #71C635",
"4	c #3F820C",
"5	c #2B5110",
"6	c #215603",
"7	c #459009",
"8	c #5AB316",
"9	c #63C419",
"0	c #65C91A",
"a	c #66C91A",
"b	c #63C319",
"c	c #5AB315",
"d	c #448F08",
"e	c #216204",
"f	c #449508",
"g	c #51B10B",
"h	c #56B90D",
"i	c #56BA0E",
"j	c #55B90D",
"k	c #51B20C",
"l	c #439408",
"m	c #236604",
"n	c #466E28",
"o	c #438F09",
"p	c #48A90B",
"q	c #49AD0C",
"r	c #4AAD0C",
"s	c #48AA0C",
"t	c #428F08",
"u	c #476E28",
"v	c #6E7568",
"w	c #3D7E06",
"x	c #4FA70A",
"y	c #4CAB0C",
"z	c #6D7569",
"A	c #616162",
"B	c #738765",
"C	c #448E08",
"D	c #4C9E0A",
"E	c #4BA50A",
"F	c #4CA60A",
"G	c #458F08",
"H	c #738866",
"I	c #616263",
"J	c #808181",
"K	c #97A193",
"L	c #537835",
"M	c #3A7006",
"N	c #818181",
"O	c #A5A6A6",
"P	c #D7D7D7",
"..................++@@@@",
"...................+@@@@",
"....................+@@@",
"#########............+@@",
"$$$$$$$$$##..........+@@",
"$$$$$$$$$$$##.........+@",
"$$$$$$$$$$$$##........+@",
"$$$$$$$$$%&**=-........+",
"$$$$$$$$;>,'),!~.......+",
"$$$$$$${]^/(_:^]<......+",
"$$$$$$$[}|1231|45.......",
"$$$$$$$67890abcd6.......",
"$$$$$$$efghiijklm.......",
"$$$$$$$nopqrrqstu.......",
"$$$$$$$vwxyyyyxwz.......",
"$$$$$$$ABCDEFDGHI.......",
"$$$$$$$$JKLMMLKN........",
"$$$$$$$$$AOPPOA#........",
"$$$$$$$$$$$$$$$#........",
"$$$$$$$$$$$$$$$#........",
"$$$$$$$$$$$$$$#........+",
"$$$$$$$$$$$$$$#........+",
"$$$$$$$$$$$$$#.........+",
"$$$$$$$$$$$$##........+@"};
