/* XPM */
static char * maximize_pressed_xpm[] = {
"24 24 87 1",
" 	c None",
".	c #101112",
"+	c #111112",
"@	c #111213",
"#	c #121213",
"$	c #121314",
"%	c #131314",
"&	c #131415",
"*	c #131414",
"=	c #0C180D",
"-	c #103706",
";	c #033101",
">	c #103606",
",	c #0D190E",
"'	c #122B0D",
")	c #1C5103",
"!	c #34680D",
"~	c #427024",
"{	c #426F24",
"]	c #1B5103",
"^	c #122D10",
"/	c #0F1C0D",
"(	c #1E5902",
"_	c #4D8624",
":	c #599134",
"<	c #619C3B",
"[	c #619D3B",
"}	c #599234",
"|	c #0D1A0E",
"1	c #2C5210",
"2	c #3F820B",
"3	c #5CA728",
"4	c #6ABC31",
"5	c #71C735",
"6	c #71C635",
"7	c #3F820C",
"8	c #2B5111",
"9	c #215603",
"0	c #459009",
"a	c #5AB316",
"b	c #63C419",
"c	c #65C91A",
"d	c #66C91A",
"e	c #63C319",
"f	c #5AB315",
"g	c #448F08",
"h	c #216204",
"i	c #449508",
"j	c #51B10B",
"k	c #56B90D",
"l	c #56BA0E",
"m	c #55B90D",
"n	c #51B20C",
"o	c #439408",
"p	c #236604",
"q	c #476E28",
"r	c #438F09",
"s	c #48A90B",
"t	c #49AD0C",
"u	c #4AAD0C",
"v	c #48AA0C",
"w	c #428F08",
"x	c #6E7569",
"y	c #3D7E06",
"z	c #4FA70A",
"A	c #4CAB0C",
"B	c #6D7569",
"C	c #616263",
"D	c #738967",
"E	c #448E08",
"F	c #4C9E0A",
"G	c #4BA50A",
"H	c #4CA60A",
"I	c #458F08",
"J	c #738968",
"K	c #626363",
"L	c #818182",
"M	c #97A194",
"N	c #537835",
"O	c #3B7006",
"P	c #818282",
"Q	c #A6A6A6",
"R	c #D7D7D7",
"S	c #A6A6A7",
"T	c #141415",
"U	c #141515",
"V	c #141516",
"..+@@@@@@@@@#$$$$$$%&&&&",
"...+@@@@@@@@#$$$$$$%*&&&",
"...+@@@@@@@@#$$$$$$$*&&&",
"....+@@@@@@@@$$$$$$$*&&&",
"....+@@@@@@@@#$$$$$$*&&&",
"....+@@@@@@@@#$$$$$$%&&&",
"....+@@@@@@@@#$$$$$$%&&&",
"....+@@@@=-;;>,$$$$$%&&&",
"....+@@@')!~{!]^$$$$%&&&",
"....+@@/(_:<[}_(|$$$%&&&",
"....+@@1234564378$$$%&&&",
"....+@@90abcdefg9$$$*&&&",
"....+@@hijkllmnop$$$*&&&",
"...+@@@qrstuutvwq$$$*&&&",
"...+@@@xyzAAAAzyB$$%*&&&",
"..+@@@@CDEFGHFIJK$$%&&&&",
".++@@@@@LMNOONMP$$$*&&&&",
"++@@@@@@@CQRRSK$$$$*&&&&",
"@@@@@@@@@@#$$$$$$$%*&&&&",
"@@@@@@@@@@#$$$$$$$*&&&&&",
"@@@@@@@@@#$$$$$$$%*&&&&&",
"@@@@@@@@#$$$$$$$$*&&&&&T",
"@@@@@@@##$$$$$$$%*&&&&&U",
"@@@@@@##$$$$$$$%*&&&&&TV"};
