/* XPM */
static char * maximize_toggled_prelight_xpm[] = {
"24 24 66 1",
" 	c None",
".	c #101112",
"+	c #0C180D",
"@	c #103706",
"#	c #033001",
"$	c #122909",
"%	c #1D5603",
"&	c #3F820D",
"*	c #63A538",
"=	c #62A437",
"-	c #0E1A0D",
";	c #1E6102",
">	c #6AB632",
",	c #84D551",
"'	c #8CDD58",
")	c #8DDD58",
"!	c #6AB633",
"~	c #1F6102",
"{	c #0C190D",
"]	c #2B5210",
"^	c #4B9E0B",
"/	c #7EDE3A",
"(	c #83E33E",
"_	c #4C9F0C",
":	c #2A5110",
"<	c #215603",
"[	c #59B70E",
"}	c #67CC18",
"|	c #68CD19",
"1	c #59B80E",
"2	c #216204",
"3	c #51AE0C",
"4	c #55BA0D",
"5	c #56BA0E",
"6	c #56BA0D",
"7	c #50AD0B",
"8	c #236604",
"9	c #466E28",
"0	c #46990A",
"a	c #4AAD0C",
"b	c #49AD0C",
"c	c #49AC0C",
"d	c #49AC0B",
"e	c #6E7568",
"f	c #3E7E06",
"g	c #50AA0C",
"h	c #4CAB0C",
"i	c #4BAA0B",
"j	c #4BAB0C",
"k	c #4FA90B",
"l	c #3F7E07",
"m	c #6E7669",
"n	c #616162",
"o	c #738764",
"p	c #468F08",
"q	c #4B9E0A",
"r	c #4BA50A",
"s	c #4C9F0A",
"t	c #808181",
"u	c #97A193",
"v	c #557838",
"w	c #3A7006",
"x	c #3A7606",
"y	c #557835",
"z	c #A5A6A6",
"A	c #D7D7D7",
"........................",
"........................",
"........................",
"........................",
"........................",
"........................",
"........................",
".........+@##@+.........",
"........$%&*=&%$........",
".......-;>,'),!~{.......",
".......]^/((((/_:.......",
".......<[}||||}1<.......",
".......2344555678.......",
".......90abcbdd09.......",
".......efghijiklm.......",
".......nopqrrspon.......",
"........tuvwxyut........",
".........nzAAzn.........",
"........................",
"........................",
"........................",
"........................",
"........................",
"........................"};
